<?xml version="1.0" encoding="utf-8"?>
<svg width="158.00098px" height="154.00146px" viewBox="0 0 158.00098 154.00146" version="1.1" xmlns:xlink="http://www.w3.org/1999/xlink" xmlns="http://www.w3.org/2000/svg">
  <g id="Group-11">
    <path d="M122.262 92.4011C122.262 106.222 111.314 117.426 97.8093 117.426L97.8093 128.976C111.314 128.976 122.262 140.18 122.262 154.001L133.548 154.001C133.548 140.18 144.496 128.976 158.001 128.976L158.001 117.426C144.496 117.426 133.548 106.222 133.548 92.4011L122.262 92.4011L122.262 92.4011Z" id="Shape-Path" fill="#DDE6FF" fill-rule="evenodd" stroke="none" />
    <path d="M0 69.2989C24.932 69.2989 45.1434 48.6144 45.1434 23.0989L60.1912 23.0989C60.1912 48.6144 80.4027 69.2989 105.335 69.2989L105.335 84.6989C80.4027 84.6989 60.1912 105.383 60.1912 130.899L45.1434 130.899C45.1434 105.383 24.932 84.6989 0 84.6989L0 69.2989L0 69.2989Z" id="Shape-Path" fill="#FFFFFF" fill-rule="evenodd" stroke="none" />
    <path d="M97.8093 18.7687C107.938 18.7687 116.149 10.3657 116.149 0L124.613 0C124.613 10.3657 132.824 18.7687 142.953 18.7687L142.953 27.4312C132.824 27.4312 124.613 35.8343 124.613 46.2L116.149 46.2C116.149 35.8343 107.938 27.4312 97.8093 27.4312L97.8093 18.7687L97.8093 18.7687Z" id="Shape-Path" fill="#C5D4FF" fill-rule="evenodd" stroke="none" />
  </g>
</svg>